<svg width="545" height="459" viewBox="0 0 545 459" fill="none" xmlns="http://www.w3.org/2000/svg">
<path d="M132.192 15.5823H142.298C190.138 15.5823 228.917 54.3456 228.917 102.167V272.998H45.5735V102.167C45.5735 54.3456 84.3571 15.5823 132.192 15.5823Z" fill="#FFB7D5"/>
<path d="M170.58 171.284V275.675H89.1332V171.284H170.58ZM172.689 169.176H87.0246V277.783H172.689V169.176Z" fill="#CA7358"/>
<path d="M172.689 169.176H87.0246V191.63H172.689V169.176Z" fill="#CA7358"/>
<path d="M86.6133 114.894V276.197H37.55V114.894H86.6133ZM88.722 112.786H35.4413V278.305H88.722V112.786Z" fill="#CA7358"/>
<path d="M237.831 82.2588V275.654H173.1V82.2588H237.831ZM239.94 80.151H170.992V277.762H239.94V80.151Z" fill="#CA7358"/>
<path d="M198.821 106.52H199.828C204.598 106.52 208.463 110.383 208.463 115.152V135.234H190.186V115.152C190.186 110.383 194.055 106.52 198.821 106.52Z" fill="#CA7358"/>
<path d="M188.098 122.181H210.555" stroke="#FFB7D5" stroke-width="4" stroke-linecap="round" stroke-linejoin="round"/>
<path d="M198.821 158.036H199.828C204.598 158.036 208.463 161.899 208.463 166.668V186.761H190.186V166.673C190.186 161.904 194.05 158.041 198.821 158.041V158.036Z" fill="#F5EBDD"/>
<path d="M188.098 173.703H210.555" stroke="#FFB7D5" stroke-width="4" stroke-linecap="round" stroke-linejoin="round"/>
<path d="M198.821 209.557H199.828C204.598 209.557 208.463 213.42 208.463 218.189V238.271H190.186V218.189C190.186 213.42 194.055 209.557 198.821 209.557Z" fill="#F5EBDD"/>
<path d="M188.098 225.218H210.555" stroke="#FFB7D5" stroke-width="4" stroke-linecap="round" stroke-linejoin="round"/>
<path d="M198.821 261.062H199.828C204.598 261.062 208.463 264.925 208.463 269.694V288.138H190.186V269.694C190.186 264.925 194.055 261.062 198.821 261.062Z" fill="#30242A"/>
<path d="M51.2142 149.204H52.2211C56.9919 149.204 60.856 153.067 60.856 157.836V177.918H42.5792V157.836C42.5792 153.067 46.4486 149.204 51.2142 149.204Z" fill="#F5EBDD"/>
<path d="M40.4916 164.865H62.9489" stroke="#FFB7D5" stroke-width="4" stroke-linecap="round" stroke-linejoin="round"/>
<path d="M51.2142 200.72H52.221C56.9919 200.72 60.856 204.583 60.856 209.352V229.445H42.5792V209.357C42.5739 204.588 46.438 200.725 51.2089 200.72C51.2142 200.72 51.2142 200.72 51.2142 200.72Z" fill="#F5EBDD"/>
<path d="M40.4916 216.387H62.9489" stroke="#FFB7D5" stroke-width="4" stroke-linecap="round" stroke-linejoin="round"/>
<path d="M51.2142 252.241H52.2211C56.9919 252.241 60.856 256.104 60.856 260.873V280.955H42.5792V260.873C42.5792 256.104 46.4486 252.241 51.2142 252.241Z" fill="#CA7358"/>
<path d="M40.4916 267.902H62.9489" stroke="#FFB7D5" stroke-width="4" stroke-linecap="round" stroke-linejoin="round"/>
<path d="M239.94 80.151H170.992V88.7668H239.94V80.151Z" fill="#CA7358"/>
<path d="M88.722 108.607H35.4413V117.223H88.722V108.607Z" fill="#CA7358"/>
<path d="M120.716 211.992H102.434V235.489H120.716V211.992Z" fill="#F5EBDD"/>
<path d="M100.341 222.436H122.803" stroke="#FFB7D5" stroke-width="4" stroke-linecap="round" stroke-linejoin="round"/>
<path d="M111.575 236.532V222.436" stroke="#FFB7D5" stroke-width="4" stroke-linecap="round" stroke-linejoin="round"/>
<path d="M120.716 254.428H102.434V277.925H120.716V254.428Z" fill="#CA7358"/>
<path d="M100.341 264.867H122.803" stroke="#FFB7D5" stroke-width="4" stroke-linecap="round" stroke-linejoin="round"/>
<path d="M111.575 278.969V264.867" stroke="#FFB7D5" stroke-width="4" stroke-linecap="round" stroke-linejoin="round"/>
<path d="M155.187 211.992H136.905V235.489H155.187V211.992Z" fill="#30242A"/>
<path d="M134.817 222.436H157.28" stroke="#FFB7D5" stroke-width="4" stroke-linecap="round" stroke-linejoin="round"/>
<path d="M146.046 236.532V222.436" stroke="#FFB7D5" stroke-width="4" stroke-linecap="round" stroke-linejoin="round"/>
<path d="M155.187 254.428H136.905V277.925H155.187V254.428Z" fill="#F5EBDD"/>
<path d="M134.817 264.867H157.28" stroke="#FFB7D5" stroke-width="4" stroke-linecap="round" stroke-linejoin="round"/>
<path d="M146.046 278.969V264.867" stroke="#FFB7D5" stroke-width="4" stroke-linecap="round" stroke-linejoin="round"/>
<path d="M99.1652 79.3658C106.665 79.3658 112.745 73.2883 112.745 65.7912C112.745 58.2942 106.665 52.2167 99.1652 52.2167C91.6653 52.2167 85.5854 58.2942 85.5854 65.7912C85.5854 73.2883 91.6653 79.3658 99.1652 79.3658Z" fill="#F5EBDD"/>
<path d="M252.423 273.082H22.0671V288.749H252.423V273.082Z" fill="#F5EBDD"/>
<path d="M140.885 0H133.605C76.3494 0 29.9061 46.4148 29.9061 103.664V288.749H244.589V103.664C244.589 46.4148 198.156 0 140.885 0ZM129.409 273.082H45.5893V142.549H129.409V273.082ZM129.409 126.882H45.5893V104.196C45.5893 57.1438 82.4066 18.3119 129.409 15.7931V126.882ZM228.917 273.082H145.097V142.549H228.917V273.082ZM228.917 126.882H145.097V15.7931C192.099 18.3119 228.917 57.1438 228.917 104.196V126.882Z" fill="#F5EBDD"/>
<path d="M192.405 259.323C192.405 259.323 156.21 172.48 154.628 149.842C149.315 73.6483 232.006 117.054 244.937 124.548C254.352 130.007 291.275 150.659 298.645 158.02C303.389 162.763 300.089 166.278 300.089 166.278C300.089 166.278 305.63 173.55 297.838 174.414C303.379 181.686 294.543 182.672 294.543 182.672C294.543 182.672 296.91 189.77 287.732 187.635C277.843 185.333 202.859 152.888 202.859 152.888C202.859 152.888 219.612 205.758 224.842 222.484L192.405 259.323Z" fill="#A15842"/>
<path d="M273.235 181.581C275.017 181.228 276.219 180.2 275.871 177.992C274.738 170.741 262.618 163.891 262.618 163.891C262.618 163.891 267.479 152.197 257.937 143.165" stroke="#30242A" stroke-width="4" stroke-miterlimit="10" stroke-linecap="round"/>
<path d="M294.422 182.297C290.073 179.752 274.132 170.43 270.352 168.491" stroke="#30242A" stroke-width="4" stroke-miterlimit="10" stroke-linecap="round"/>
<path d="M297.986 174.177C292.546 170.92 279.293 162.673 273.821 159.807" stroke="#30242A" stroke-width="4" stroke-miterlimit="10" stroke-linecap="round"/>
<path d="M299.963 165.271C293.11 160.729 280.183 152.313 275.07 149.731" stroke="#30242A" stroke-width="4" stroke-miterlimit="10" stroke-linecap="round"/>
<path d="M269.74 167.49C271.564 164.191 274.685 157.635 274.854 147.128" stroke="#30242A" stroke-width="4" stroke-miterlimit="10" stroke-linecap="round"/>
<path d="M202.658 154.121L190.312 148.514" stroke="#30242A" stroke-width="4" stroke-linecap="round" stroke-linejoin="round"/>
<path d="M102.381 400.539H14.5498V410.693H102.381V400.539Z" fill="#A15842"/>
<path d="M116.846 453.219L95.0902 322.717H108.417C111.385 322.717 113.794 320.309 113.794 317.342C113.794 314.375 111.385 311.967 108.417 311.967H8.64023C5.67229 311.967 3.26314 314.375 3.26314 317.342C3.26314 320.309 5.67229 322.717 8.64023 322.717H21.8194L0.0632444 453.209C-0.358488 455.664 1.29681 457.993 3.75341 458.415C4.00645 458.457 4.25949 458.478 4.51253 458.478C6.637 458.478 8.47154 456.998 8.9249 454.927L37.7662 322.717H79.1645L107.979 454.921C108.427 456.992 110.262 458.473 112.387 458.473C114.88 458.478 116.904 456.46 116.91 453.973C116.91 453.72 116.889 453.467 116.846 453.219Z" fill="#FFBE21"/>
<path d="M108.417 322.717C111.385 322.717 113.794 320.309 113.794 317.342C113.794 314.375 111.385 311.967 108.417 311.967H8.64025C5.6723 311.967 3.26315 314.375 3.26315 317.342C3.26315 320.309 5.6723 322.717 8.64025 322.717H21.8194L21.793 322.88H37.7082L37.7451 322.717H79.1434L79.1803 322.88H95.1166L95.0902 322.717H108.417Z" fill="#A15842"/>
<path d="M444.886 211.76H444.754C443.816 213.457 437.632 223.833 426.767 223.833C415.902 223.833 409.719 213.457 408.775 211.76H408.648L391.737 288.069H461.797L444.886 211.76Z" fill="#3EC1F3"/>
<path d="M399.75 252.352C414.099 253.854 436.383 266.664 444.127 287.848" stroke="#F5EBDD" stroke-width="4" stroke-miterlimit="10" stroke-linecap="round"/>
<path d="M409.049 288.464C410.657 271.206 424.337 242.682 448.956 233.76" stroke="#F5EBDD" stroke-width="4" stroke-miterlimit="10" stroke-linecap="round"/>
<path d="M426.509 218.21C420.462 224.581 412.84 230.514 404.215 234.498" stroke="#F5EBDD" stroke-width="4" stroke-miterlimit="10" stroke-linecap="round"/>
<path d="M426.767 223.833C437.632 223.833 443.816 213.457 444.754 211.76H408.775C409.719 213.457 415.897 223.833 426.767 223.833Z" fill="#30242A"/>
<path d="M328.05 458.473C325.493 458.473 323.416 456.402 323.416 453.841C323.416 453.351 323.495 452.861 323.648 452.392L338.188 408.169C338.82 406.277 340.591 405.002 342.589 405.007H352.764C355.32 405.007 357.397 407.078 357.403 409.634C357.403 410.425 357.202 411.204 356.812 411.9L332.099 456.123C331.271 457.577 329.726 458.478 328.05 458.473Z" fill="#A15842"/>
<path d="M522.559 458.473C525.115 458.473 527.192 456.402 527.192 453.841C527.192 453.351 527.113 452.861 526.96 452.392L512.421 408.169C511.789 406.277 510.012 405.002 508.019 405.007H497.84C495.283 405.007 493.206 407.084 493.206 409.639C493.206 410.43 493.412 411.21 493.796 411.9L518.51 456.123C519.338 457.577 520.887 458.478 522.559 458.473Z" fill="#A15842"/>
<path d="M545 287.205H306.426V423.73H545V287.205Z" fill="#FFB7D5"/>
<path d="M527.045 304.8V406.125H324.381V304.8H527.045ZM529.153 302.692H322.272V408.232H529.153V302.692Z" fill="#CA7358"/>
<path d="M425.491 302.503V408.433" stroke="#CA7358" stroke-width="4" stroke-miterlimit="10"/>
<path d="M449.467 361.607C452.859 361.607 455.608 358.858 455.608 355.468C455.608 352.077 452.859 349.329 449.467 349.329C446.075 349.329 443.326 352.077 443.326 355.468C443.326 358.858 446.075 361.607 449.467 361.607Z" fill="#30242A"/>
<path d="M401.959 361.607C405.351 361.607 408.1 358.858 408.1 355.468C408.1 352.077 405.351 349.329 401.959 349.329C398.567 349.329 395.817 352.077 395.817 355.468C395.817 358.858 398.567 361.607 401.959 361.607Z" fill="#30242A"/>
<path d="M73.9877 246.413C82.512 246.413 89.4179 253.316 89.4179 261.837V312.115H58.5576V261.837C58.5576 253.316 65.4687 246.413 73.9877 246.413Z" fill="#4756DF"/>
<path d="M89.4232 266.116H58.5576V294.862H89.4232V266.116Z" fill="#3EC1F3"/>
<path d="M80.8462 238.414H67.1293V248.125H80.8462V238.414Z" fill="#30242A"/>
<path d="M262.734 156.871C273.274 156.871 281.818 148.331 281.818 137.795C281.818 127.26 273.274 118.719 262.734 118.719C252.195 118.719 243.651 127.26 243.651 137.795C243.651 148.331 252.195 156.871 262.734 156.871Z" fill="#30242A"/>
<path d="M247.916 149.589C249.439 150.279 236.518 120.079 230.045 124.864C223.956 129.348 240.208 146.084 247.916 149.589Z" fill="#FFBE21"/>
<path d="M246.276 149.531C247.541 151.112 278.038 141.099 273.963 134.892C270.051 128.937 245.011 147.96 246.276 149.531Z" fill="#FFBE21"/>
<path d="M283.652 127.604C290.439 127.604 295.94 122.104 295.94 115.32C295.94 108.536 290.439 103.037 283.652 103.037C276.866 103.037 271.364 108.536 271.364 115.32C271.364 122.104 276.866 127.604 283.652 127.604Z" fill="#30242A"/>
<path d="M199.727 333.024H262.476L265.787 317.342H190.18L199.727 333.024Z" fill="#CA7358"/>
<path d="M199.179 281.277C199.179 281.277 211.995 264.551 236.044 262.981L252.012 228.691C247.747 228.011 244.674 227.579 244.674 227.579C245.306 226.051 247.457 220.992 250.056 214.753C245.354 211.628 237.673 205.484 235.896 197.732C241.537 196.884 252.766 191.561 248.332 182.25C242.902 170.831 228.532 179.615 228.532 179.615C224.167 174.667 221.383 168.533 220.529 161.993C218.784 162.173 213.787 161.64 210.239 159.722L210.002 159.585C208.104 163.311 206.401 167.131 204.899 171.036C204.504 172.037 204.124 173.007 203.723 173.929C203.723 173.929 198.763 173.086 197.745 175.136C196.485 177.665 200.26 180.933 200.26 180.933C197.244 186.603 194.572 191.245 195.542 197.126C196.396 202.317 201.293 208.624 212.833 209.678L207.034 227.969L185.42 265.484C189.659 267.966 195.352 272.692 199.179 281.277Z" fill="#CA7358"/>
<path d="M351.889 207.839C345.083 199.35 320.786 164.686 312.673 158.184C307.443 153.999 304.307 157.657 304.307 157.657C304.307 157.657 296.462 152.951 296.462 160.792C288.618 156.086 288.618 164.971 288.618 164.971C288.618 164.971 281.296 163.39 284.438 172.29C287.817 181.86 325.746 250.934 325.746 250.934C325.746 250.934 286.525 236.3 271.364 232.401C268.581 231.684 265.17 230.978 261.727 230.335C259.508 235.531 256.039 244.036 250.446 258.264C242.855 277.525 246.545 296.78 268.512 304.421L272.408 285.977C272.408 285.977 312.999 301.227 335.668 300.611C412.544 298.524 361.304 219.596 351.889 207.839Z" fill="#CA7358"/>
<path d="M220.529 161.993C221.378 168.554 224.172 174.704 228.553 179.663C228.553 179.663 242.923 170.852 248.353 182.297C252.787 191.609 241.558 196.931 235.917 197.78C237.694 205.531 245.375 211.675 250.077 214.8C253.936 205.531 258.775 193.648 261.053 186.871C264.421 176.827 266.161 161.261 251.036 150.016C236.882 139.513 220.661 146.48 217.003 150.137C214.831 152.308 212.785 154.353 210.023 159.622L210.26 159.759C213.787 161.619 218.784 162.152 220.529 161.993Z" fill="#30242A"/>
<path d="M250.446 258.28C256.039 244.084 259.508 235.557 261.727 230.351C258.332 229.713 254.911 229.139 252.033 228.681L236.081 262.981C212.031 264.561 199.216 281.277 199.216 281.277C195.368 272.692 189.674 267.966 185.462 265.468L180.644 273.831C175.636 282.8 175.836 293.766 181.171 302.54L190.175 317.331H265.787L268.512 304.426C246.545 296.796 242.855 277.541 250.446 258.28Z" fill="#FFBE21"/>
<path d="M213.16 210.759C216.439 210.743 219.702 210.258 222.849 209.325" stroke="#30242A" stroke-width="4" stroke-miterlimit="10" stroke-linecap="round"/>
<path d="M290.131 182.993C290.516 181.654 291.465 180.785 293.326 180.917C300.648 181.444 308.487 192.942 308.487 192.942C308.487 192.942 319.742 187.145 329.542 195.867" stroke="#30242A" stroke-width="4" stroke-miterlimit="10" stroke-linecap="round"/>
<path d="M289.683 164.686C293.774 171.131 301.376 183.13 303.258 186.144" stroke="#30242A" stroke-width="4" stroke-miterlimit="10" stroke-linecap="round"/>
<path d="M297.232 160.212C301.449 166.42 308.83 177.012 311.629 181.444" stroke="#30242A" stroke-width="4" stroke-miterlimit="10" stroke-linecap="round"/>
<path d="M305.487 157.778C310.759 164.502 318.835 174.936 321.561 179.383" stroke="#30242A" stroke-width="4" stroke-miterlimit="10" stroke-linecap="round"/>
<path d="M304.307 186.144C307.47 184.036 313.716 180.395 324.175 179.352" stroke="#30242A" stroke-width="4" stroke-miterlimit="10" stroke-linecap="round"/>
<path d="M244.552 226.462L235.285 225.35" stroke="#30242A" stroke-width="4" stroke-miterlimit="10" stroke-linecap="round"/>
<path d="M211.752 327.797L211.23 326.754" stroke="#30242A" stroke-width="4" stroke-miterlimit="10" stroke-linecap="round"/>
<path d="M271.891 286.989L266.656 284.934" stroke="#30242A" stroke-width="4" stroke-miterlimit="10" stroke-linecap="round"/>
<path d="M337.771 254.618L325.883 249.949" stroke="#30242A" stroke-width="4" stroke-miterlimit="10" stroke-linecap="round"/>
<path d="M265.787 317.342H190.18" stroke="#30242A" stroke-width="4" stroke-linecap="round" stroke-linejoin="round"/>
<path d="M235.285 262.981L227.646 280.033C225.305 285.25 220.118 288.607 214.398 288.607H176.97" stroke="#30242A" stroke-width="4" stroke-linecap="round" stroke-linejoin="round"/>
<path d="M203.117 187.288C204.018 188.062 207.677 189.116 209.633 186.476" stroke="#30242A" stroke-width="4" stroke-miterlimit="10" stroke-linecap="round"/>
<path d="M240.261 185.649L233.64 188.215" stroke="#A15842" stroke-width="4" stroke-miterlimit="10" stroke-linecap="round"/>
<path d="M215.563 175.294C213.529 175.8 211.462 174.567 210.956 172.527C210.935 172.448 210.919 172.369 210.903 172.29" stroke="#30242A" stroke-width="4" stroke-linecap="round" stroke-linejoin="round"/>
<path d="M233.35 194.981L230.957 204.756C230.545 206.38 231.531 208.029 233.15 208.435C233.624 208.556 234.125 208.556 234.605 208.445L243.54 206.337C245.169 205.942 246.165 204.303 245.77 202.68C245.659 202.217 245.433 201.779 245.122 201.416L238.579 193.769C237.488 192.499 235.575 192.357 234.304 193.453C233.84 193.854 233.508 194.386 233.35 194.981Z" fill="#F4E6D8"/>
<path d="M253.477 422.113C248.248 415.837 230.055 393.13 230.055 393.13" stroke="#30242A" stroke-width="4" stroke-linecap="round" stroke-linejoin="round"/>
<path d="M394.758 371.198C392.839 366.012 389.317 357.323 384.973 346.889L338.351 360.49L333.005 362.176C335.409 377.716 337.254 385.294 337.254 385.294C337.254 385.294 287.058 339.295 262.481 333.024H199.706L178.266 458.473H365.463C418.823 458.473 403.656 395.227 394.758 371.198Z" fill="#4856DF"/>
<path d="M343.997 251.308C342.748 248.331 339.563 246.645 336.395 247.288C327.101 249.364 326.379 266.954 324.175 277.093C320.517 293.824 312.673 300.094 312.151 311.071C311.624 321.61 328.361 325.705 328.361 325.705C328.931 331.222 329.51 336.35 330.096 341.076L376.686 327.154C363.908 297.043 348.773 262.259 343.997 251.308Z" fill="#A15842"/>
<path d="M332.979 362.055V362.176L338.325 360.49L332.979 362.055Z" fill="#A15842"/>
<path d="M384.984 346.873C384.847 346.551 384.715 346.225 384.578 345.898L338.351 360.49L384.984 346.873Z" fill="#3EC1F3"/>
<path d="M384.578 345.903C382.148 340.075 379.47 333.725 376.671 327.159L330.08 341.082C331.076 349.218 332.062 356.2 332.963 362.06L338.33 360.479L384.578 345.903Z" fill="#3EC1F3"/>
<path d="M243.324 332.861C260.035 350.382 346.448 439.202 373.328 430.244C392.955 423.704 364.056 359.272 361.304 350.794" stroke="#3EC1F3" stroke-width="4" stroke-linecap="round" stroke-linejoin="round"/>
<path d="M359.965 404.185C353.908 398.758 343.095 389.077 337.349 383.966" stroke="#30242A" stroke-width="4" stroke-linecap="round" stroke-linejoin="round"/>
<path d="M326.268 313.685L327.291 324.609" stroke="#30242A" stroke-width="4" stroke-linecap="round" stroke-linejoin="round"/>
<path d="M339.405 248.215L341.387 253.769" stroke="#30242A" stroke-width="4" stroke-linecap="round" stroke-linejoin="round"/>
<path d="M334.661 248.742L337.866 256.62" stroke="#30242A" stroke-width="4" stroke-linecap="round" stroke-linejoin="round"/>
<path d="M213.165 402.731L212.87 402.641L223.777 332.919H199.706C199.706 332.919 103.514 369.617 81.5526 404.633C60.7928 437.732 98.8067 458.473 109.788 458.473H205.558L213.165 402.731Z" fill="#4856DF"/>
<path d="M314.238 458.473C326.79 458.473 322.61 444.356 313.711 439.655C304.813 434.955 294.364 430.244 283.383 415.61C272.402 400.976 259.329 404.633 250.963 415.083C250.963 415.083 244.584 412.791 235.211 409.682L227.873 458.468L314.238 458.473Z" fill="#CA7358"/>
<path d="M214.082 403.005L213.165 402.731L205.558 458.473H227.878L235.216 409.666C229.122 407.669 221.768 405.303 214.082 403.005Z" fill="#3EC1F3"/>
<path d="M308.487 452.724L316.21 457.419" stroke="#30242A" stroke-width="4" stroke-linecap="round" stroke-linejoin="round"/>
<path d="M161.555 390.521C183.517 394.7 193.017 397.372 212.885 403.695" stroke="#30242A" stroke-width="4" stroke-linecap="round" stroke-linejoin="round"/>
<path d="M302.214 455.338L306.721 457.946" stroke="#30242A" stroke-width="4" stroke-linecap="round" stroke-linejoin="round"/>
<path d="M252.017 414.435L259.334 417.18" stroke="#30242A" stroke-width="4" stroke-linecap="round" stroke-linejoin="round"/>
<path d="M428.428 217.462C429.545 210.864 434.627 184.695 447.063 170.536" stroke="#30242A" stroke-width="4" stroke-miterlimit="10" stroke-linecap="round"/>
<path d="M454.715 193.377C465.573 188.685 473.519 182.902 472.463 180.46C471.407 178.019 461.749 179.843 450.891 184.535C440.033 189.227 432.087 195.01 433.142 197.452C434.198 199.893 443.857 198.069 454.715 193.377Z" fill="#30242A"/>
<path d="M455.817 125.064C459.744 119.83 461.446 114.477 459.62 113.108C457.794 111.739 453.13 114.873 449.204 120.107C445.278 125.342 443.575 130.695 445.401 132.064C447.228 133.433 451.891 130.299 455.817 125.064Z" fill="#30242A"/>
<path d="M476.996 160.349C476.231 157.862 471.276 157.061 465.003 158.11C469.594 151.907 471.492 145.853 469.22 143.94C466.948 142.027 461.312 144.915 455.956 150.474C455.956 144.119 454.317 139.366 451.739 139.034C448.45 138.607 444.844 145.536 443.684 154.505C443.341 157.066 443.246 159.654 443.399 162.236C448.434 160.66 453.795 163.464 455.371 168.496C455.772 169.766 455.898 171.105 455.746 172.427C458.234 172.137 460.69 171.621 463.084 170.883C471.724 168.238 477.955 163.522 476.996 160.349Z" fill="#FFBE21"/>
<path d="M452.403 164.049C449.91 161.941 446.504 161.256 443.389 162.236C443.668 166.51 444.728 169.787 446.346 171.01C447.849 172.427 451.36 172.917 455.735 172.427C456.099 169.255 454.849 166.109 452.403 164.049Z" fill="#30242A"/>
<path d="M424.98 216.624C424.616 209.13 422.439 172.359 414.279 150.643" stroke="#30242A" stroke-width="4" stroke-miterlimit="10" stroke-linecap="round"/>
<path d="M398.059 195.533C412.081 192.862 423.066 188.69 422.594 186.214C422.122 183.738 410.372 183.897 396.35 186.568C382.328 189.239 371.343 193.411 371.815 195.887C372.287 198.363 384.037 198.204 398.059 195.533Z" fill="#30242A"/>
<path d="M420.262 119.373C417.721 118.814 414.595 122.745 412.428 128.721C409.265 121.681 404.921 117.059 402.149 118.092C399.376 119.125 399.107 125.47 401.337 132.847C395.786 129.749 390.851 128.826 389.296 130.913C387.309 133.548 391.579 140.109 398.833 145.521C400.899 147.075 403.108 148.429 405.433 149.562C406.524 144.403 411.595 141.11 416.756 142.201C418.058 142.475 419.292 143.023 420.373 143.803C421.337 141.495 422.091 139.097 422.624 136.652C424.558 127.82 423.504 120.084 420.262 119.373Z" fill="#FFBE21"/>
<path d="M411.437 142.601C408.374 143.74 406.108 146.369 405.433 149.568C409.297 151.417 412.671 152.102 414.532 151.296C416.503 150.674 418.654 147.855 420.373 143.808C417.784 141.937 414.432 141.484 411.437 142.601Z" fill="#30242A"/>
<path d="M387.109 158.537V158.568C391.426 161.008 393.16 166.346 391.099 170.857C389.033 175.363 383.866 177.539 379.196 175.879V175.916C390.994 181.307 402.333 181.781 404.5 176.97C406.666 172.159 398.906 163.922 387.109 158.537Z" fill="#FFBE21"/>
<path d="M388.057 174.572C385.822 173.323 385.026 170.493 386.276 168.259C387.388 166.272 389.781 165.387 391.921 166.172C391.679 162.989 389.871 160.139 387.093 158.568L379.185 175.879C382.179 176.949 385.506 176.459 388.057 174.572Z" fill="#F5EBDD"/>
<path d="M386.107 168.602C385.105 170.794 385.954 173.392 388.057 174.572C390.709 172.628 392.169 169.45 391.922 166.172C389.649 165.345 387.119 166.399 386.107 168.602Z" fill="#30242A"/>
</svg>
